<?xml version="1.0" encoding="UTF-8"?> <svg xmlns="http://www.w3.org/2000/svg" width="3202.412" height="804.26" viewBox="0 0 3202.412 804.26"><g id="Group_3231" data-name="Group 3231" transform="translate(-7863.405 -5361.521)"><path id="SILVER_AGENCY_PARTNER" data-name="SILVER AGENCY PARTNER" d="M119.232-48.111a51.4,51.4,0,0,1-4.245,21.349,43.773,43.773,0,0,1-12.12,15.935,53.877,53.877,0,0,1-19.2,9.905A88.851,88.851,0,0,1,58.2,2.461,143.144,143.144,0,0,1,32.669.308,69.916,69.916,0,0,1,12.8-6.029v-21.9q4.184,1.969,9.536,3.876t11.259,3.384q5.906,1.477,12.182,2.4A85.326,85.326,0,0,0,58.2-17.35q19.688,0,29.1-7.383T96.715-45.9a33.932,33.932,0,0,0-1.784-11.566,22.906,22.906,0,0,0-6.275-9.044,55.244,55.244,0,0,0-12-8q-7.506-3.876-18.949-8.429A112.451,112.451,0,0,1,38.7-92.347a54.884,54.884,0,0,1-13.289-11.5,42.736,42.736,0,0,1-7.752-14.52,62.186,62.186,0,0,1-2.522-18.457,45.413,45.413,0,0,1,3.938-19.318,40.061,40.061,0,0,1,11.074-14.335A49.932,49.932,0,0,1,47.188-179.4a73.385,73.385,0,0,1,21.841-3.076,114.567,114.567,0,0,1,26.332,2.769,105.5,105.5,0,0,1,20.795,7.075l-8.244,19.2a117.114,117.114,0,0,0-18.149-6.214A82.85,82.85,0,0,0,68.783-162.3q-15.012,0-23.256,6.952t-8.244,18.765a35.7,35.7,0,0,0,1.846,12.12,24.025,24.025,0,0,0,6.152,9.229,48.238,48.238,0,0,0,11.382,7.752q7.075,3.63,17.411,7.69A168.222,168.222,0,0,1,93.7-90.686,58.886,58.886,0,0,1,107.789-80.1a39.453,39.453,0,0,1,8.552,13.658A52.448,52.448,0,0,1,119.232-48.111ZM238.864,0H173.649V-12.551L194.813-17.6V-162.3l-21.164-5.045v-12.551h65.215v12.551L217.7-162.3V-17.6l21.164,5.045ZM306.2,0V-179.895h22.887V-20.426h70.506V0ZM546.909-179.895h24.363L511.1,0h-23.01L428.169-179.895h24.24l36.3,114.064q3.568,11.2,6.152,21.595t4.676,19.5q1.846-9.105,4.676-19.5t6.645-22.333ZM721.911,0H628.518V-179.895h93.393v20.18H651.405V-104.1h65.83v19.934h-65.83V-20.18h70.506Zm95.268-74.32V0H794.292V-179.895h43.8q32.73,0,48.357,12.674t15.627,38.391a52.922,52.922,0,0,1-3.015,18.7,44.6,44.6,0,0,1-8,13.72,46.8,46.8,0,0,1-11.382,9.536A77.2,77.2,0,0,1,866.521-80.6L915.493,0H888.546L845.357-74.32Zm0-19.441h20.18a71.185,71.185,0,0,0,18.826-2.153,32.932,32.932,0,0,0,12.735-6.4,24.533,24.533,0,0,0,7.26-10.582,43.835,43.835,0,0,0,2.276-14.827,39.614,39.614,0,0,0-2.522-15.012,23.975,23.975,0,0,0-7.629-10.09,32.852,32.852,0,0,0-12.92-5.722,84.1,84.1,0,0,0-18.519-1.784H817.179ZM129.814,307l-19.687-55.74H43.066L23.133,307H0L66.076,126.367H86.994L153.193,307Zm-26.947-76.043L84.656,178.785q-.738-2.215-1.784-5.414t-2.153-6.891q-1.107-3.691-2.215-7.69t-2.092-7.813q-.861,3.814-1.969,7.875t-2.215,7.813q-1.107,3.753-2.153,6.891t-1.784,5.229L50.449,230.957Zm176.848-18.949H339.27v88.225q-6.768,2.215-13.658,3.938t-14.15,2.892q-7.26,1.169-15.258,1.784t-17.227.615q-19.318,0-34.207-6.46a68.025,68.025,0,0,1-25.1-18.457,81.294,81.294,0,0,1-15.5-29.162q-5.291-17.165-5.291-38.575,0-21.164,5.845-38.268a79.836,79.836,0,0,1,17.042-29.1,74.4,74.4,0,0,1,27.624-18.457q16.427-6.46,37.468-6.46a124.006,124.006,0,0,1,26.209,2.707A105.911,105.911,0,0,1,336.44,135.1l-8.859,19.934q-4.43-2.092-9.536-3.937t-10.521-3.261a106.993,106.993,0,0,0-11.136-2.276,76.365,76.365,0,0,0-11.382-.861q-15.012,0-26.578,4.983a51.3,51.3,0,0,0-19.38,14.335,63.886,63.886,0,0,0-11.874,22.764,104.372,104.372,0,0,0-4.061,30.27,118.613,118.613,0,0,0,3.384,29.285,62.216,62.216,0,0,0,10.767,22.887,49.168,49.168,0,0,0,19.072,14.889q11.689,5.291,28.178,5.291,5.414,0,9.905-.308t8.306-.8q3.814-.492,7.2-1.169t6.583-1.292V232.188H279.715ZM508,307H414.6V127.105H508v20.18H437.491V202.9h65.83v19.934h-65.83V286.82H508Zm207.117,0H688.659L600.188,158.113H599.2q.738,9.475,1.23,18.826.492,8,.8,16.734t.308,15.75V307H580.378V127.105h26.209l88.1,148.148h.861q-.369-9.352-.861-18.457-.123-3.937-.308-8.06l-.369-8.244q-.185-4.122-.246-7.937t-.062-7.014V127.105h21.41ZM869.936,144.7a55.883,55.883,0,0,0-23.871,4.983,50.859,50.859,0,0,0-18.272,14.335A67.063,67.063,0,0,0,816.1,186.783a102.917,102.917,0,0,0-4.122,30.27,118.826,118.826,0,0,0,3.63,30.823,62.563,62.563,0,0,0,10.89,22.7,46.774,46.774,0,0,0,18.088,14.027q10.828,4.8,25.348,4.8a97.11,97.11,0,0,0,20.795-2.153q9.844-2.153,19.441-4.983V302.2q-4.8,1.846-9.6,3.261a83.289,83.289,0,0,1-10.028,2.276q-5.229.861-11.2,1.292t-13.228.431q-20.18,0-34.945-6.645a64.306,64.306,0,0,1-24.425-18.826,80.794,80.794,0,0,1-14.335-29.285,143.568,143.568,0,0,1-4.676-37.9,123.951,123.951,0,0,1,5.353-37.406,82.52,82.52,0,0,1,15.75-29.162,70.88,70.88,0,0,1,25.778-18.949q15.381-6.768,35.314-6.768a115.435,115.435,0,0,1,25.348,2.707,86.566,86.566,0,0,1,21.779,7.875l-9.6,19.2a107.83,107.83,0,0,0-16.857-6.768A69.6,69.6,0,0,0,869.936,144.7Zm153.469,73.336,41.836-90.932h24.609l-54.879,109.881V307h-23.01V238.217L957.083,127.105h24.979ZM132.275,486.77a68.766,68.766,0,0,1-3.384,21.533,46.606,46.606,0,0,1-11.136,18.272Q110,534.512,97.269,539.249T65.83,543.986H47.373V614H24.486V434.105H69.029q16.488,0,28.424,3.507a52.069,52.069,0,0,1,19.688,10.213,40.141,40.141,0,0,1,11.443,16.55A63.472,63.472,0,0,1,132.275,486.77Zm-84.9,37.775H63.246a89.883,89.883,0,0,0,20-1.969,35.7,35.7,0,0,0,14.15-6.337,26.927,26.927,0,0,0,8.429-11.32A44.915,44.915,0,0,0,108.65,488q0-17.473-10.09-25.9t-31.5-8.429H47.373ZM297.68,614l-19.687-55.74H210.932L191,614H167.865l66.076-180.633H254.86L321.059,614Zm-26.947-76.043-18.211-52.172q-.738-2.215-1.784-5.414t-2.153-6.891q-1.107-3.691-2.215-7.69t-2.092-7.813q-.861,3.814-1.969,7.875t-2.215,7.813q-1.107,3.753-2.153,6.891t-1.784,5.229l-17.842,52.172Zm130.459,1.723V614H378.305V434.105h43.8q32.73,0,48.357,12.674t15.627,38.391a52.922,52.922,0,0,1-3.015,18.7,44.6,44.6,0,0,1-8,13.72,46.8,46.8,0,0,1-11.382,9.536,77.2,77.2,0,0,1-13.166,6.275L499.506,614H472.559L429.37,539.68Zm0-19.441h20.18a71.185,71.185,0,0,0,18.826-2.153,32.932,32.932,0,0,0,12.735-6.4,24.533,24.533,0,0,0,7.26-10.582,43.835,43.835,0,0,0,2.276-14.827,39.614,39.614,0,0,0-2.522-15.012,23.975,23.975,0,0,0-7.629-10.09,32.852,32.852,0,0,0-12.92-5.722,84.1,84.1,0,0,0-18.519-1.784H401.192ZM609.663,614h-23.01V454.285H535.219v-20.18H660.973v20.18H609.663Zm245.877,0H829.085L740.614,465.113h-.984q.738,9.475,1.23,18.826.492,8,.8,16.734t.308,15.75V614H720.8V434.105h26.209l88.1,148.148h.861q-.369-9.352-.861-18.457-.123-3.937-.308-8.06l-.369-8.244q-.185-4.122-.246-7.937t-.062-7.014V434.105h21.41Zm175.125,0H937.273V434.105h93.393v20.18H960.159V509.9h65.83v19.934h-65.83V593.82h70.506Zm95.268-74.32V614h-22.887V434.105h43.8q32.73,0,48.357,12.674t15.627,38.391a52.922,52.922,0,0,1-3.015,18.7,44.6,44.6,0,0,1-8,13.72,46.8,46.8,0,0,1-11.382,9.536,77.2,77.2,0,0,1-13.166,6.275l48.973,80.6H1197.3l-43.189-74.32Zm0-19.441h20.18a71.185,71.185,0,0,0,18.826-2.153,32.932,32.932,0,0,0,12.735-6.4,24.533,24.533,0,0,0,7.26-10.582,43.835,43.835,0,0,0,2.276-14.827,39.614,39.614,0,0,0-2.522-15.012,23.975,23.975,0,0,0-7.629-10.09,32.852,32.852,0,0,0-12.92-5.722,84.1,84.1,0,0,0-18.519-1.784h-19.687Z" transform="translate(9841.569 5544)" fill="#858585"></path><path id="wordpress-simple" d="M391.238,8C179.581,8,8,179.582,8,391.238S179.581,774.476,391.238,774.476,774.476,602.895,774.476,391.238C774.268,179.667,602.808,8.208,391.238,8ZM46.623,391.238A342.145,342.145,0,0,1,76.451,251.046L240.845,701.284A344.814,344.814,0,0,1,46.623,391.238ZM391.238,735.709A343.2,343.2,0,0,1,293.9,721.653L397.263,421.288l105.845,290.2a46.517,46.517,0,0,0,2.47,4.785,344.937,344.937,0,0,1-114.34,19.439Zm47.44-506.018c20.7-1.108,39.4-3.245,39.4-3.245a14.259,14.259,0,1,0-2.215-28.433s-55.78,4.331-91.778,4.331c-33.838,0-90.692-4.331-90.692-4.331a14.259,14.259,0,0,0-2.215,28.433s17.611,2.215,36.153,3.245l53.664,147.148L305.585,602.861,180.125,229.724c20.7-1.108,39.4-3.245,39.4-3.245a14.259,14.259,0,1,0-2.215-28.433s-55.78,4.331-91.778,4.331c-6.491,0-14.056-.155-22.252-.465a344.56,344.56,0,0,1,520.583-64.9,43.65,43.65,0,0,0-4.43-.31,59.634,59.634,0,0,0-57.785,61.185c0,28.433,16.382,52.38,33.838,80.857a180.82,180.82,0,0,1,28.355,94.979c0,29.507-11.276,63.655-26.262,111.4L563.241,599.937,438.622,229.724ZM564.393,688.923,669.617,384.692a325.9,325.9,0,0,0,26.217-123.445,253.577,253.577,0,0,0-2.315-35.378c89.511,163.845,32.253,369.172-129.127,463.053Z" transform="translate(7855.405 5379.534)"></path><path id="Path_28571" data-name="Path 28571" d="M8039.711,5336.375H7936.359l148.422,381.262H8185.1l148.422-381.262H8229.039l-81.758,256.559-11.437,53.445-11.469-53.445Z" transform="translate(735.146 265.783)" fill="#171d24"></path><path id="Path_28572" data-name="Path 28572" d="M8003.523,5336.375h74.141v386.871h-103.25V5406.234Z" transform="translate(1118.632 265.783)" fill="#171d24"></path><path id="Subtraction_1" data-name="Subtraction 1" d="M100.018,571.39H0V7.753H80.247l20.4,55.525a.332.332,0,0,1,0-.089,140.535,140.535,0,0,1,27.879-31.545A130.7,130.7,0,0,1,213.55,0c43.485,0,79.594,21.92,104.4,63.378a273.916,273.916,0,0,1,33.605,138.4,267.624,267.624,0,0,1-33.118,136.67,132.238,132.238,0,0,1-42.954,44.726A115.868,115.868,0,0,1,213.539,400.1,170.142,170.142,0,0,1,97.659,355.2a2.138,2.138,0,0,0-1.229-.676.565.565,0,0,0-.465.244c-1.263,1.684,1.661,11.774,1.695,11.874l2.348,9.182V571.379ZM178.66,86.661a65.018,65.018,0,0,0-58.471,33.051,160.849,160.849,0,0,0-19.062,83.249,158.113,158.113,0,0,0,20.347,83.183,65.937,65.937,0,0,0,114.373,0,158.113,158.113,0,0,0,20.347-83.183,160.849,160.849,0,0,0-19.062-83.249,65.006,65.006,0,0,0-58.472-33.04Z" transform="translate(9247.563 5594.391)" fill="#171d24"></path></g></svg> 